<svg width="217" height="25" viewBox="0 0 217 25" fill="none" xmlns="http://www.w3.org/2000/svg">
<path d="M0.294721 23.0441C0.042925 23.1575 -0.0692897 23.4535 0.0440827 23.7053C0.157455 23.9571 0.453483 24.0693 0.705279 23.9559L0.5 23.5L0.294721 23.0441ZM216.5 23.5L213.103 18.8316L210.759 24.1076L216.5 23.5ZM0.5 23.5L0.705279 23.9559C1.47173 23.6108 2.2403 23.2693 3.01095 22.9313L2.81015 22.4734L2.60935 22.0155C1.8357 22.3548 1.06415 22.6976 0.294721 23.0441L0.5 23.5ZM7.46089 20.4881L7.65269 20.9498C9.20453 20.3052 10.7645 19.6751 12.3323 19.0595L12.1496 18.5941L11.9669 18.1287C10.3929 18.7466 8.82696 19.3792 7.26909 20.0263L7.46089 20.4881ZM16.8744 16.7921L17.048 17.261C18.6238 16.6776 20.2071 16.1088 21.7979 15.5549L21.6335 15.0827L21.4691 14.6105C19.8721 15.1666 18.2826 15.7375 16.7008 16.3232L16.8744 16.7921ZM26.4251 13.4663L26.5803 13.9416C28.1774 13.4201 29.7816 12.9135 31.3929 12.4218L31.247 11.9436L31.1011 11.4654C29.4836 11.9589 27.8731 12.4675 26.2699 12.991L26.4251 13.4663ZM36.098 10.5148L36.2346 10.9957C37.8505 10.5368 39.4732 10.0928 41.1025 9.66402L40.9752 9.18048L40.848 8.69695C39.2124 9.12739 37.5835 9.57306 35.9614 10.0338L36.098 10.5148ZM45.8782 7.94074L45.9961 8.42664C47.6283 8.03069 49.2669 7.64988 50.9117 7.28439L50.8032 6.79629L50.6947 6.3082C49.0437 6.67509 47.3989 7.05736 45.7604 7.45483L45.8782 7.94074ZM55.7508 5.74682L55.8498 6.23692C57.4959 5.90432 59.1478 5.58699 60.8055 5.28511L60.7159 4.7932L60.6263 4.30129C58.9623 4.60432 57.3041 4.92286 55.6518 5.25673L55.7508 5.74682ZM65.7001 3.93491L65.7802 4.42845C67.4377 4.15938 69.1007 3.90569 70.769 3.66755L70.6984 3.17257L70.6277 2.67759C68.9531 2.91663 67.2838 3.17127 65.6199 3.44137L65.7001 3.93491ZM75.7113 2.50585L75.7725 3.00209C77.4391 2.79661 79.1108 2.6066 80.7874 2.43224L80.7357 1.93492L80.684 1.4376C79.0011 1.61263 77.3231 1.80334 75.6502 2.00961L75.7113 2.50585ZM85.7699 1.45967L85.8121 1.95788C87.4855 1.81593 89.1635 1.68952 90.846 1.57881L90.8132 1.07989L90.7804 0.580968C89.0915 0.692088 87.4072 0.818971 85.7276 0.961464L85.7699 1.45967ZM95.861 0.795566L95.8844 1.29502C97.5618 1.21639 99.2434 1.15336 100.929 1.10606L100.915 0.60626L100.901 0.106456C99.2091 0.153925 97.5212 0.217194 95.8376 0.296115L95.861 0.795566ZM105.97 0.5118L105.975 1.01178C106.816 1.00393 107.657 1 108.5 1V0.5V0C107.654 0 106.809 0.00394678 105.966 0.0118221L105.97 0.5118ZM108.5 0.5V1C109.343 1 110.184 1.00393 111.025 1.01178L111.03 0.5118L111.034 0.011822C110.191 0.00394672 109.346 0 108.5 0V0.5ZM116.085 0.60626L116.071 1.10606C117.757 1.15336 119.438 1.21639 121.116 1.29502L121.139 0.795566L121.162 0.296114C119.479 0.217194 117.791 0.153925 116.099 0.106456L116.085 0.60626ZM126.187 1.07989L126.154 1.57881C127.837 1.68952 129.515 1.81592 131.188 1.95788L131.23 1.45967L131.272 0.961464C129.593 0.81897 127.908 0.692087 126.22 0.580968L126.187 1.07989ZM136.264 1.93492L136.213 2.43224C137.889 2.6066 139.561 2.79661 141.227 3.00209L141.289 2.50585L141.35 2.00961C139.677 1.80334 137.999 1.61262 136.316 1.4376L136.264 1.93492ZM146.302 3.17257L146.231 3.66755C147.899 3.90569 149.562 4.15937 151.22 4.42845L151.3 3.93491L151.38 3.44137C149.716 3.17127 148.047 2.91663 146.372 2.67759L146.302 3.17257ZM156.284 4.7932L156.194 5.28511C157.852 5.58699 159.504 5.90431 161.15 6.23691L161.249 5.74682L161.348 5.25672C159.696 4.92285 158.038 4.60432 156.374 4.30129L156.284 4.7932ZM166.197 6.79629L166.088 7.28438C167.733 7.64988 169.372 8.03069 171.004 8.42664L171.122 7.94074L171.24 7.45483C169.601 7.05736 167.956 6.67509 166.305 6.3082L166.197 6.79629ZM176.025 9.18048L175.897 9.66402C177.527 10.0928 179.149 10.5368 180.765 10.9957L180.902 10.5148L181.039 10.0338C179.416 9.57306 177.788 9.12739 176.152 8.69695L176.025 9.18048ZM185.753 11.9436L185.607 12.4218C187.218 12.9135 188.823 13.4201 190.42 13.9416L190.575 13.4663L190.73 12.991C189.127 12.4675 187.516 11.9589 185.899 11.4654L185.753 11.9436ZM195.367 15.0827L195.202 15.5549C196.793 16.1088 198.376 16.6776 199.952 17.261L200.126 16.7921L200.299 16.3232C198.717 15.7375 197.128 15.1666 195.531 14.6105L195.367 15.0827ZM204.85 18.5941L204.668 19.0595C206.236 19.6751 207.795 20.3052 209.347 20.9498L209.539 20.4881L209.731 20.0263C208.173 19.3792 206.607 18.7466 205.033 18.1287L204.85 18.5941ZM0.294721 23.0441C0.042925 23.1575 -0.0692897 23.4535 0.0440827 23.7053C0.157455 23.9571 0.453483 24.0693 0.705279 23.9559L0.5 23.5L0.294721 23.0441ZM216.5 23.5L213.103 18.8316L210.759 24.1076L216.5 23.5ZM0.5 23.5L0.705279 23.9559C1.47173 23.6108 2.2403 23.2693 3.01095 22.9313L2.81015 22.4734L2.60935 22.0155C1.8357 22.3548 1.06415 22.6976 0.294721 23.0441L0.5 23.5ZM7.46089 20.4881L7.65269 20.9498C9.20453 20.3052 10.7645 19.6751 12.3323 19.0595L12.1496 18.5941L11.9669 18.1287C10.3929 18.7466 8.82696 19.3792 7.26909 20.0263L7.46089 20.4881ZM16.8744 16.7921L17.048 17.261C18.6238 16.6776 20.2071 16.1088 21.7979 15.5549L21.6335 15.0827L21.4691 14.6105C19.8721 15.1666 18.2826 15.7375 16.7008 16.3232L16.8744 16.7921ZM26.4251 13.4663L26.5803 13.9416C28.1774 13.4201 29.7816 12.9135 31.3929 12.4218L31.247 11.9436L31.1011 11.4654C29.4836 11.9589 27.8731 12.4675 26.2699 12.991L26.4251 13.4663ZM36.098 10.5148L36.2346 10.9957C37.8505 10.5368 39.4732 10.0928 41.1025 9.66402L40.9752 9.18048L40.848 8.69695C39.2124 9.12739 37.5835 9.57306 35.9614 10.0338L36.098 10.5148ZM45.8782 7.94074L45.9961 8.42664C47.6283 8.03069 49.2669 7.64988 50.9117 7.28439L50.8032 6.79629L50.6947 6.3082C49.0437 6.67509 47.3989 7.05736 45.7604 7.45483L45.8782 7.94074ZM55.7508 5.74682L55.8498 6.23692C57.4959 5.90432 59.1478 5.58699 60.8055 5.28511L60.7159 4.7932L60.6263 4.30129C58.9623 4.60432 57.3041 4.92286 55.6518 5.25673L55.7508 5.74682ZM65.7001 3.93491L65.7802 4.42845C67.4377 4.15938 69.1007 3.90569 70.769 3.66755L70.6984 3.17257L70.6277 2.67759C68.9531 2.91663 67.2838 3.17127 65.6199 3.44137L65.7001 3.93491ZM75.7113 2.50585L75.7725 3.00209C77.4391 2.79661 79.1108 2.6066 80.7874 2.43224L80.7357 1.93492L80.684 1.4376C79.0011 1.61263 77.3231 1.80334 75.6502 2.00961L75.7113 2.50585ZM85.7699 1.45967L85.8121 1.95788C87.4855 1.81593 89.1635 1.68952 90.846 1.57881L90.8132 1.07989L90.7804 0.580968C89.0915 0.692088 87.4072 0.818971 85.7276 0.961464L85.7699 1.45967ZM95.861 0.795566L95.8844 1.29502C97.5618 1.21639 99.2434 1.15336 100.929 1.10606L100.915 0.60626L100.901 0.106456C99.2091 0.153925 97.5212 0.217194 95.8376 0.296115L95.861 0.795566ZM105.97 0.5118L105.975 1.01178C106.816 1.00393 107.657 1 108.5 1V0.5V0C107.654 0 106.809 0.00394678 105.966 0.0118221L105.97 0.5118ZM108.5 0.5V1C109.343 1 110.184 1.00393 111.025 1.01178L111.03 0.5118L111.034 0.011822C110.191 0.00394672 109.346 0 108.5 0V0.5ZM116.085 0.60626L116.071 1.10606C117.757 1.15336 119.438 1.21639 121.116 1.29502L121.139 0.795566L121.162 0.296114C119.479 0.217194 117.791 0.153925 116.099 0.106456L116.085 0.60626ZM126.187 1.07989L126.154 1.57881C127.837 1.68952 129.515 1.81592 131.188 1.95788L131.23 1.45967L131.272 0.961464C129.593 0.81897 127.908 0.692087 126.22 0.580968L126.187 1.07989ZM136.264 1.93492L136.213 2.43224C137.889 2.6066 139.561 2.79661 141.227 3.00209L141.289 2.50585L141.35 2.00961C139.677 1.80334 137.999 1.61262 136.316 1.4376L136.264 1.93492ZM146.302 3.17257L146.231 3.66755C147.899 3.90569 149.562 4.15937 151.22 4.42845L151.3 3.93491L151.38 3.44137C149.716 3.17127 148.047 2.91663 146.372 2.67759L146.302 3.17257ZM156.284 4.7932L156.194 5.28511C157.852 5.58699 159.504 5.90431 161.15 6.23691L161.249 5.74682L161.348 5.25672C159.696 4.92285 158.038 4.60432 156.374 4.30129L156.284 4.7932ZM166.197 6.79629L166.088 7.28438C167.733 7.64988 169.372 8.03069 171.004 8.42664L171.122 7.94074L171.24 7.45483C169.601 7.05736 167.956 6.67509 166.305 6.3082L166.197 6.79629ZM176.025 9.18048L175.897 9.66402C177.527 10.0928 179.149 10.5368 180.765 10.9957L180.902 10.5148L181.039 10.0338C179.416 9.57306 177.788 9.12739 176.152 8.69695L176.025 9.18048ZM185.753 11.9436L185.607 12.4218C187.218 12.9135 188.823 13.4201 190.42 13.9416L190.575 13.4663L190.73 12.991C189.127 12.4675 187.516 11.9589 185.899 11.4654L185.753 11.9436ZM195.367 15.0827L195.202 15.5549C196.793 16.1088 198.376 16.6776 199.952 17.261L200.126 16.7921L200.299 16.3232C198.717 15.7375 197.128 15.1666 195.531 14.6105L195.367 15.0827ZM204.85 18.5941L204.668 19.0595C206.236 19.6751 207.795 20.3052 209.347 20.9498L209.539 20.4881L209.731 20.0263C208.173 19.3792 206.607 18.7466 205.033 18.1287L204.85 18.5941Z" fill="#AFAFAF" fill-opacity="0.4"/>
</svg>
