<svg width="219" height="25" viewBox="0 0 219 25" fill="none" xmlns="http://www.w3.org/2000/svg">
<path d="M0.296291 23.0434C0.044106 23.1559 -0.0691263 23.4515 0.0433792 23.7037C0.155885 23.9559 0.451525 24.0691 0.703709 23.9566L0.5 23.5L0.296291 23.0434ZM218.5 23.5L215.087 18.8432L212.761 24.1272L218.5 23.5ZM0.5 23.5L0.703709 23.9566C1.47804 23.6112 2.2545 23.2693 3.03307 22.931L2.83382 22.4724L2.63458 22.0139C1.85302 22.3534 1.07359 22.6966 0.296291 23.0434L0.5 23.5ZM7.53184 20.4854L7.72212 20.9478C9.28959 20.3027 10.8652 19.6721 12.4489 19.0561L12.2676 18.5901L12.0864 18.1241C10.4967 18.7425 8.91503 19.3755 7.34156 20.023L7.53184 20.4854ZM17.0394 16.7872L17.2116 17.2566C18.8028 16.673 20.4017 16.104 22.0082 15.5499L21.8451 15.0772L21.6821 14.6045C20.0695 15.1608 18.4645 15.7319 16.8672 16.3178L17.0394 16.7872ZM26.6832 13.4605L26.8371 13.9362C28.4495 13.4147 30.0692 12.908 31.696 12.4163L31.5514 11.9376L31.4067 11.459C29.7738 11.9526 28.1479 12.4612 26.5293 12.9847L26.6832 13.4605ZM36.4484 10.5089L36.5838 10.9902C38.215 10.5313 39.853 10.0874 41.4976 9.65871L41.3715 9.17487L41.2454 8.69104C39.5945 9.12138 37.9504 9.56696 36.313 10.0276L36.4484 10.5089ZM46.3202 7.93551L46.437 8.42167C48.0843 8.02586 49.7381 7.6452 51.3981 7.27985L51.2906 6.79154L51.1831 6.30322C49.5169 6.66995 47.8569 7.05204 46.2033 7.44934L46.3202 7.93551ZM56.2835 5.74261L56.3816 6.23288C58.0426 5.90047 59.7096 5.58333 61.3824 5.28162L61.2936 4.78956L61.2049 4.2975C59.5258 4.60034 57.8526 4.91867 56.1853 5.25233L56.2835 5.74261ZM66.3227 3.93186L66.4021 4.42552C68.0745 4.15664 69.7524 3.90315 71.4358 3.66519L71.3658 3.17011L71.2958 2.67503C69.6062 2.91388 67.922 3.16832 66.2434 3.4382L66.3227 3.93186ZM76.4234 2.50394L76.484 3.00025C78.1654 2.79494 79.852 2.6051 81.5435 2.43089L81.4923 1.93352L81.441 1.43615C79.7433 1.61101 78.0505 1.80155 76.3628 2.00762L76.4234 2.50394ZM86.5708 1.45872L86.6127 1.95696C88.3008 1.81513 89.9936 1.68884 91.691 1.57824L91.6585 1.0793L91.6259 0.580358C89.9223 0.691365 88.2233 0.818121 86.529 0.960471L86.5708 1.45872ZM96.7505 0.795262L96.7737 1.29472C98.4658 1.21617 100.162 1.1532 101.863 1.10596L101.849 0.606149L101.835 0.106342C100.128 0.15376 98.4256 0.216962 96.7274 0.2958L96.7505 0.795262ZM106.948 0.511788L106.953 1.01177C107.801 1.00393 108.65 1 109.5 1V0.5V0C108.647 0 107.795 0.00394243 106.944 0.0118091L106.948 0.511788ZM109.5 0.5V1C110.35 1 111.199 1.00393 112.047 1.01177L112.052 0.511788L112.056 0.0118093C111.205 0.00394249 110.353 0 109.5 0V0.5ZM117.151 0.606149L117.137 1.10596C118.838 1.1532 120.534 1.21617 122.226 1.29472L122.249 0.795262L122.273 0.2958C120.574 0.216963 118.872 0.15376 117.165 0.106342L117.151 0.606149ZM127.342 1.0793L127.309 1.57824C129.006 1.68884 130.699 1.81513 132.387 1.95696L132.429 1.45872L132.471 0.960471C130.777 0.818121 129.078 0.691366 127.374 0.580359L127.342 1.0793ZM137.508 1.93352L137.457 2.43089C139.148 2.6051 140.835 2.79494 142.516 3.00025L142.577 2.50394L142.637 2.00762C140.95 1.80155 139.257 1.61101 137.559 1.43615L137.508 1.93352ZM147.634 3.17011L147.564 3.66519C149.248 3.90315 150.925 4.15664 152.598 4.42552L152.677 3.93186L152.757 3.4382C151.078 3.16832 149.394 2.91388 147.704 2.67503L147.634 3.17011ZM157.706 4.78956L157.618 5.28162C159.29 5.58333 160.957 5.90047 162.618 6.23288L162.717 5.74261L162.815 5.25233C161.147 4.91867 159.474 4.60034 157.795 4.2975L157.706 4.78956ZM167.709 6.79153L167.602 7.27985C169.262 7.6452 170.916 8.02586 172.563 8.42167L172.68 7.93551L172.797 7.44934C171.143 7.05204 169.483 6.66994 167.817 6.30322L167.709 6.79153ZM177.628 9.17487L177.502 9.6587C179.147 10.0874 180.785 10.5313 182.416 10.9902L182.552 10.5089L182.687 10.0276C181.05 9.56695 179.405 9.12138 177.755 8.69104L177.628 9.17487ZM187.449 11.9376L187.304 12.4163C188.931 12.908 190.55 13.4147 192.163 13.9362L192.317 13.4605L192.471 12.9847C190.852 12.4612 189.226 11.9526 187.593 11.459L187.449 11.9376ZM197.155 15.0772L196.992 15.5499C198.598 16.104 200.197 16.673 201.788 17.2566L201.961 16.7872L202.133 16.3178C200.536 15.7319 198.931 15.1608 197.318 14.6045L197.155 15.0772ZM206.732 18.5901L206.551 19.0561C208.135 19.6721 209.71 20.3027 211.278 20.9478L211.468 20.4854L211.658 20.023C210.085 19.3755 208.503 18.7425 206.914 18.1241L206.732 18.5901ZM0.296291 23.0434C0.044106 23.1559 -0.0691263 23.4515 0.0433792 23.7037C0.155885 23.9559 0.451525 24.0691 0.703709 23.9566L0.5 23.5L0.296291 23.0434ZM218.5 23.5L215.087 18.8432L212.761 24.1272L218.5 23.5ZM0.5 23.5L0.703709 23.9566C1.47804 23.6112 2.2545 23.2693 3.03307 22.931L2.83382 22.4724L2.63458 22.0139C1.85302 22.3534 1.07359 22.6966 0.296291 23.0434L0.5 23.5ZM7.53184 20.4854L7.72212 20.9478C9.28959 20.3027 10.8652 19.6721 12.4489 19.0561L12.2676 18.5901L12.0864 18.1241C10.4967 18.7425 8.91503 19.3755 7.34156 20.023L7.53184 20.4854ZM17.0394 16.7872L17.2116 17.2566C18.8028 16.673 20.4017 16.104 22.0082 15.5499L21.8451 15.0772L21.6821 14.6045C20.0695 15.1608 18.4645 15.7319 16.8672 16.3178L17.0394 16.7872ZM26.6832 13.4605L26.8371 13.9362C28.4495 13.4147 30.0692 12.908 31.696 12.4163L31.5514 11.9376L31.4067 11.459C29.7738 11.9526 28.1479 12.4612 26.5293 12.9847L26.6832 13.4605ZM36.4484 10.5089L36.5838 10.9902C38.215 10.5313 39.853 10.0874 41.4976 9.65871L41.3715 9.17487L41.2454 8.69104C39.5945 9.12138 37.9504 9.56696 36.313 10.0276L36.4484 10.5089ZM46.3202 7.93551L46.437 8.42167C48.0843 8.02586 49.7381 7.6452 51.3981 7.27985L51.2906 6.79154L51.1831 6.30322C49.5169 6.66995 47.8569 7.05204 46.2033 7.44934L46.3202 7.93551ZM56.2835 5.74261L56.3816 6.23288C58.0426 5.90047 59.7096 5.58333 61.3824 5.28162L61.2936 4.78956L61.2049 4.2975C59.5258 4.60034 57.8526 4.91867 56.1853 5.25233L56.2835 5.74261ZM66.3227 3.93186L66.4021 4.42552C68.0745 4.15664 69.7524 3.90315 71.4358 3.66519L71.3658 3.17011L71.2958 2.67503C69.6062 2.91388 67.922 3.16832 66.2434 3.4382L66.3227 3.93186ZM76.4234 2.50394L76.484 3.00025C78.1654 2.79494 79.852 2.6051 81.5435 2.43089L81.4923 1.93352L81.441 1.43615C79.7433 1.61101 78.0505 1.80155 76.3628 2.00762L76.4234 2.50394ZM86.5708 1.45872L86.6127 1.95696C88.3008 1.81513 89.9936 1.68884 91.691 1.57824L91.6585 1.0793L91.6259 0.580358C89.9223 0.691365 88.2233 0.818121 86.529 0.960471L86.5708 1.45872ZM96.7505 0.795262L96.7737 1.29472C98.4658 1.21617 100.162 1.1532 101.863 1.10596L101.849 0.606149L101.835 0.106342C100.128 0.15376 98.4256 0.216962 96.7274 0.2958L96.7505 0.795262ZM106.948 0.511788L106.953 1.01177C107.801 1.00393 108.65 1 109.5 1V0.5V0C108.647 0 107.795 0.00394243 106.944 0.0118091L106.948 0.511788ZM109.5 0.5V1C110.35 1 111.199 1.00393 112.047 1.01177L112.052 0.511788L112.056 0.0118093C111.205 0.00394249 110.353 0 109.5 0V0.5ZM117.151 0.606149L117.137 1.10596C118.838 1.1532 120.534 1.21617 122.226 1.29472L122.249 0.795262L122.273 0.2958C120.574 0.216963 118.872 0.15376 117.165 0.106342L117.151 0.606149ZM127.342 1.0793L127.309 1.57824C129.006 1.68884 130.699 1.81513 132.387 1.95696L132.429 1.45872L132.471 0.960471C130.777 0.818121 129.078 0.691366 127.374 0.580359L127.342 1.0793ZM137.508 1.93352L137.457 2.43089C139.148 2.6051 140.835 2.79494 142.516 3.00025L142.577 2.50394L142.637 2.00762C140.95 1.80155 139.257 1.61101 137.559 1.43615L137.508 1.93352ZM147.634 3.17011L147.564 3.66519C149.248 3.90315 150.925 4.15664 152.598 4.42552L152.677 3.93186L152.757 3.4382C151.078 3.16832 149.394 2.91388 147.704 2.67503L147.634 3.17011ZM157.706 4.78956L157.618 5.28162C159.29 5.58333 160.957 5.90047 162.618 6.23288L162.717 5.74261L162.815 5.25233C161.147 4.91867 159.474 4.60034 157.795 4.2975L157.706 4.78956ZM167.709 6.79153L167.602 7.27985C169.262 7.6452 170.916 8.02586 172.563 8.42167L172.68 7.93551L172.797 7.44934C171.143 7.05204 169.483 6.66994 167.817 6.30322L167.709 6.79153ZM177.628 9.17487L177.502 9.6587C179.147 10.0874 180.785 10.5313 182.416 10.9902L182.552 10.5089L182.687 10.0276C181.05 9.56695 179.405 9.12138 177.755 8.69104L177.628 9.17487ZM187.449 11.9376L187.304 12.4163C188.931 12.908 190.55 13.4147 192.163 13.9362L192.317 13.4605L192.471 12.9847C190.852 12.4612 189.226 11.9526 187.593 11.459L187.449 11.9376ZM197.155 15.0772L196.992 15.5499C198.598 16.104 200.197 16.673 201.788 17.2566L201.961 16.7872L202.133 16.3178C200.536 15.7319 198.931 15.1608 197.318 14.6045L197.155 15.0772ZM206.732 18.5901L206.551 19.0561C208.135 19.6721 209.71 20.3027 211.278 20.9478L211.468 20.4854L211.658 20.023C210.085 19.3755 208.503 18.7425 206.914 18.1241L206.732 18.5901Z" fill="#AFAFAF" fill-opacity="0.4"/>
</svg>
