<svg width="219" height="25" viewBox="0 0 219 25" fill="none" xmlns="http://www.w3.org/2000/svg">
<path d="M0.296291 1.08357C0.044106 0.971067 -0.0691263 0.675428 0.0433792 0.423244C0.155885 0.171059 0.451525 0.057827 0.703709 0.170332L0.5 0.626953L0.296291 1.08357ZM218.5 0.626953L215.087 5.28377L212.761 -0.000240326L218.5 0.626953ZM0.5 0.626953L0.703709 0.170332C1.47804 0.515779 2.2545 0.857653 3.03307 1.19593L2.83382 1.65452L2.63458 2.1131C1.85302 1.77353 1.07359 1.43034 0.296291 1.08357L0.5 0.626953ZM7.53184 3.64157L7.72212 3.17919C9.28959 3.82424 10.8652 4.45485 12.4489 5.07084L12.2676 5.53683L12.0864 6.00282C10.4967 5.38448 8.91503 4.75146 7.34156 4.10394L7.53184 3.64157ZM17.0394 7.33975L17.2116 6.87033C18.8028 7.45396 20.4017 8.02294 22.0082 8.5771L21.8451 9.04977L21.6821 9.52244C20.0695 8.96617 18.4645 8.39502 16.8672 7.80917L17.0394 7.33975ZM26.6832 10.6665L26.8371 10.1907C28.4495 10.7123 30.0692 11.219 31.696 11.7107L31.5514 12.1893L31.4067 12.6679C29.7738 12.1744 28.1479 11.6657 26.5293 11.1422L26.6832 10.6665ZM36.4484 13.6181L36.5838 13.1367C38.215 13.5956 39.853 14.0395 41.4976 14.4682L41.3715 14.9521L41.2454 15.4359C39.5945 15.0056 37.9504 14.56 36.313 14.0994L36.4484 13.6181ZM46.3202 16.1914L46.437 15.7053C48.0843 16.1011 49.7381 16.4818 51.3981 16.8471L51.2906 17.3354L51.1831 17.8237C49.5169 17.457 47.8569 17.0749 46.2033 16.6776L46.3202 16.1914ZM56.2834 18.3843L56.3816 17.8941C58.0426 18.2265 59.7096 18.5436 61.3824 18.8453L61.2936 19.3374L61.2049 19.8294C59.5258 19.5266 57.8526 19.2083 56.1853 18.8746L56.2834 18.3843ZM66.3227 20.1951L66.4021 19.7014C68.0745 19.9703 69.7524 20.2238 71.4358 20.4618L71.3658 20.9568L71.2958 21.4519C69.6062 21.2131 67.922 20.9586 66.2434 20.6888L66.3227 20.1951ZM76.4234 21.623L76.484 21.1267C78.1654 21.332 79.852 21.5219 81.5435 21.6961L81.4923 22.1934L81.441 22.6908C79.7433 22.5159 78.0505 22.3254 76.3628 22.1193L76.4234 21.623ZM86.5708 22.6682L86.6127 22.17C88.3008 22.3118 89.9936 22.4381 91.691 22.5487L91.6585 23.0477L91.626 23.5466C89.9223 23.4356 88.2233 23.3088 86.529 23.1665L86.5708 22.6682ZM96.7505 23.3317L96.7737 22.8322C98.4658 22.9108 100.162 22.9738 101.863 23.021L101.849 23.5208L101.835 24.0206C100.128 23.9732 98.4256 23.91 96.7274 23.8312L96.7505 23.3317ZM106.948 23.6152L106.953 23.1152C107.801 23.123 108.65 23.127 109.5 23.127V23.627V24.127C108.647 24.127 107.795 24.123 106.944 24.1151L106.948 23.6152ZM109.5 23.627V23.127C110.35 23.127 111.199 23.123 112.047 23.1152L112.052 23.6152L112.056 24.1151C111.205 24.123 110.353 24.127 109.5 24.127V23.627ZM117.151 23.5208L117.137 23.021C118.838 22.9738 120.534 22.9108 122.226 22.8322L122.249 23.3317L122.273 23.8312C120.574 23.91 118.872 23.9732 117.165 24.0206L117.151 23.5208ZM127.342 23.0477L127.309 22.5487C129.006 22.4381 130.699 22.3118 132.387 22.17L132.429 22.6682L132.471 23.1665C130.777 23.3088 129.078 23.4356 127.374 23.5466L127.342 23.0477ZM137.508 22.1934L137.457 21.6961C139.148 21.5219 140.835 21.332 142.516 21.1267L142.577 21.623L142.637 22.1193C140.95 22.3254 139.257 22.5159 137.559 22.6908L137.508 22.1934ZM147.634 20.9568L147.564 20.4618C149.248 20.2238 150.925 19.9703 152.598 19.7014L152.677 20.1951L152.757 20.6888C151.078 20.9586 149.394 21.2131 147.704 21.4519L147.634 20.9568ZM157.706 19.3374L157.618 18.8453C159.29 18.5436 160.957 18.2265 162.618 17.8941L162.717 18.3843L162.815 18.8746C161.147 19.2083 159.474 19.5266 157.795 19.8295L157.706 19.3374ZM167.709 17.3354L167.602 16.8471C169.262 16.4818 170.916 16.1011 172.563 15.7053L172.68 16.1914L172.797 16.6776C171.143 17.0749 169.483 17.457 167.817 17.8237L167.709 17.3354ZM177.628 14.9521L177.502 14.4683C179.147 14.0395 180.785 13.5956 182.416 13.1367L182.552 13.6181L182.687 14.0994C181.05 14.56 179.405 15.0056 177.755 15.4359L177.628 14.9521ZM187.449 12.1893L187.304 11.7107C188.931 11.219 190.55 10.7123 192.163 10.1907L192.317 10.6665L192.471 11.1422C190.852 11.6657 189.226 12.1744 187.593 12.6679L187.449 12.1893ZM197.155 9.04977L196.992 8.5771C198.598 8.02294 200.197 7.45396 201.788 6.87033L201.961 7.33974L202.133 7.80917C200.536 8.39502 198.931 8.96617 197.318 9.52244L197.155 9.04977ZM206.732 5.53683L206.551 5.07084C208.135 4.45485 209.71 3.82424 211.278 3.17919L211.468 3.64156L211.658 4.10394C210.085 4.75146 208.503 5.38448 206.914 6.00282L206.732 5.53683ZM0.296291 1.08357C0.044106 0.971067 -0.0691263 0.675428 0.0433792 0.423244C0.155885 0.171059 0.451525 0.057827 0.703709 0.170332L0.5 0.626953L0.296291 1.08357ZM218.5 0.626953L215.087 5.28377L212.761 -0.000240326L218.5 0.626953ZM0.5 0.626953L0.703709 0.170332C1.47804 0.515779 2.2545 0.857653 3.03307 1.19593L2.83382 1.65452L2.63458 2.1131C1.85302 1.77353 1.07359 1.43034 0.296291 1.08357L0.5 0.626953ZM7.53184 3.64157L7.72212 3.17919C9.28959 3.82424 10.8652 4.45485 12.4489 5.07084L12.2676 5.53683L12.0864 6.00282C10.4967 5.38448 8.91503 4.75146 7.34156 4.10394L7.53184 3.64157ZM17.0394 7.33975L17.2116 6.87033C18.8028 7.45396 20.4017 8.02294 22.0082 8.5771L21.8451 9.04977L21.6821 9.52244C20.0695 8.96617 18.4645 8.39502 16.8672 7.80917L17.0394 7.33975ZM26.6832 10.6665L26.8371 10.1907C28.4495 10.7123 30.0692 11.219 31.696 11.7107L31.5514 12.1893L31.4067 12.6679C29.7738 12.1744 28.1479 11.6657 26.5293 11.1422L26.6832 10.6665ZM36.4484 13.6181L36.5838 13.1367C38.215 13.5956 39.853 14.0395 41.4976 14.4682L41.3715 14.9521L41.2454 15.4359C39.5945 15.0056 37.9504 14.56 36.313 14.0994L36.4484 13.6181ZM46.3202 16.1914L46.437 15.7053C48.0843 16.1011 49.7381 16.4818 51.3981 16.8471L51.2906 17.3354L51.1831 17.8237C49.5169 17.457 47.8569 17.0749 46.2033 16.6776L46.3202 16.1914ZM56.2834 18.3843L56.3816 17.8941C58.0426 18.2265 59.7096 18.5436 61.3824 18.8453L61.2936 19.3374L61.2049 19.8294C59.5258 19.5266 57.8526 19.2083 56.1853 18.8746L56.2834 18.3843ZM66.3227 20.1951L66.4021 19.7014C68.0745 19.9703 69.7524 20.2238 71.4358 20.4618L71.3658 20.9568L71.2958 21.4519C69.6062 21.2131 67.922 20.9586 66.2434 20.6888L66.3227 20.1951ZM76.4234 21.623L76.484 21.1267C78.1654 21.332 79.852 21.5219 81.5435 21.6961L81.4923 22.1934L81.441 22.6908C79.7433 22.5159 78.0505 22.3254 76.3628 22.1193L76.4234 21.623ZM86.5708 22.6682L86.6127 22.17C88.3008 22.3118 89.9936 22.4381 91.691 22.5487L91.6585 23.0477L91.626 23.5466C89.9223 23.4356 88.2233 23.3088 86.529 23.1665L86.5708 22.6682ZM96.7505 23.3317L96.7737 22.8322C98.4658 22.9108 100.162 22.9738 101.863 23.021L101.849 23.5208L101.835 24.0206C100.128 23.9732 98.4256 23.91 96.7274 23.8312L96.7505 23.3317ZM106.948 23.6152L106.953 23.1152C107.801 23.123 108.65 23.127 109.5 23.127V23.627V24.127C108.647 24.127 107.795 24.123 106.944 24.1151L106.948 23.6152ZM109.5 23.627V23.127C110.35 23.127 111.199 23.123 112.047 23.1152L112.052 23.6152L112.056 24.1151C111.205 24.123 110.353 24.127 109.5 24.127V23.627ZM117.151 23.5208L117.137 23.021C118.838 22.9738 120.534 22.9108 122.226 22.8322L122.249 23.3317L122.273 23.8312C120.574 23.91 118.872 23.9732 117.165 24.0206L117.151 23.5208ZM127.342 23.0477L127.309 22.5487C129.006 22.4381 130.699 22.3118 132.387 22.17L132.429 22.6682L132.471 23.1665C130.777 23.3088 129.078 23.4356 127.374 23.5466L127.342 23.0477ZM137.508 22.1934L137.457 21.6961C139.148 21.5219 140.835 21.332 142.516 21.1267L142.577 21.623L142.637 22.1193C140.95 22.3254 139.257 22.5159 137.559 22.6908L137.508 22.1934ZM147.634 20.9568L147.564 20.4618C149.248 20.2238 150.925 19.9703 152.598 19.7014L152.677 20.1951L152.757 20.6888C151.078 20.9586 149.394 21.2131 147.704 21.4519L147.634 20.9568ZM157.706 19.3374L157.618 18.8453C159.29 18.5436 160.957 18.2265 162.618 17.8941L162.717 18.3843L162.815 18.8746C161.147 19.2083 159.474 19.5266 157.795 19.8295L157.706 19.3374ZM167.709 17.3354L167.602 16.8471C169.262 16.4818 170.916 16.1011 172.563 15.7053L172.68 16.1914L172.797 16.6776C171.143 17.0749 169.483 17.457 167.817 17.8237L167.709 17.3354ZM177.628 14.9521L177.502 14.4683C179.147 14.0395 180.785 13.5956 182.416 13.1367L182.552 13.6181L182.687 14.0994C181.05 14.56 179.405 15.0056 177.755 15.4359L177.628 14.9521ZM187.449 12.1893L187.304 11.7107C188.931 11.219 190.55 10.7123 192.163 10.1907L192.317 10.6665L192.471 11.1422C190.852 11.6657 189.226 12.1744 187.593 12.6679L187.449 12.1893ZM197.155 9.04977L196.992 8.5771C198.598 8.02294 200.197 7.45396 201.788 6.87033L201.961 7.33974L202.133 7.80917C200.536 8.39502 198.931 8.96617 197.318 9.52244L197.155 9.04977ZM206.732 5.53683L206.551 5.07084C208.135 4.45485 209.71 3.82424 211.278 3.17919L211.468 3.64156L211.658 4.10394C210.085 4.75146 208.503 5.38448 206.914 6.00282L206.732 5.53683Z" fill="#AFAFAF" fill-opacity="0.4"/>
</svg>
